<svg xmlns="http://www.w3.org/2000/svg" viewBox="0 0 560 300" role="img" aria-label="SEO analysis panel in admin">
  <rect width="560" height="300" rx="10" fill="#fff" stroke="#e2e8f0"/>
  <rect width="560" height="44" rx="10" fill="#f8fafc"/>
  <text x="20" y="28" font-family="Inter,Arial,sans-serif" font-size="14" font-weight="600" fill="#0f172a">SEO Analysis</text>
  <rect x="460" y="12" width="80" height="24" rx="12" fill="#22c55e"/>
  <text x="478" y="28" font-family="Inter,Arial,sans-serif" font-size="11" fill="#fff" font-weight="600">82 / 100</text>
  <text x="20" y="68" font-family="Inter,Arial,sans-serif" font-size="11" fill="#64748b">Google Search Preview</text>
  <rect x="20" y="78" width="520" height="56" rx="6" fill="#f8f9fa" stroke="#e0e0e0"/>
  <text x="32" y="98" font-family="Inter,Arial,sans-serif" font-size="11" fill="#1a0dab">yoursite.com/services/plaster</text>
  <text x="32" y="116" font-family="Inter,Arial,sans-serif" font-size="13" fill="#1a0dab" font-weight="600">Ornate Plaster Services | Your Brand</text>
  <text x="32" y="132" font-family="Inter,Arial,sans-serif" font-size="10" fill="#4d5156">Expert plaster finishes for luxury interiors&</text>
  <text x="20" y="162" font-family="Inter,Arial,sans-serif" font-size="11" fill="#334155">Focus keyword</text>
  <rect x="20" y="168" width="240" height="28" rx="4" fill="#fff" stroke="#cbd5e1"/>
  <text x="28" y="186" font-family="Inter,Arial,sans-serif" font-size="10" fill="#94a3b8">ornate plaster</text>
  <text x="280" y="162" font-family="Inter,Arial,sans-serif" font-size="11" fill="#334155">Meta title (0 / 70)</text>
  <rect x="280" y="168" width="260" height="28" rx="4" fill="#fff" stroke="#cbd5e1"/>
  <rect x="20" y="210" width="520" height="8" rx="4" fill="#e2e8f0"/>
  <rect x="20" y="210" width="380" height="8" rx="4" fill="#22c55e"/>
  <text x="20" y="238" font-family="Inter,Arial,sans-serif" font-size="10" fill="#16a34a"> Keyword in title</text>
  <text x="200" y="238" font-family="Inter,Arial,sans-serif" font-size="10" fill="#16a34a"> Meta description length OK</text>
  <text x="20" y="258" font-family="Inter,Arial,sans-serif" font-size="10" fill="#ca8a04">  Add keyword to first paragraph</text>
  <text x="20" y="278" font-family="Inter,Arial,sans-serif" font-size="10" fill="#64748b">Expand panel on Services, Blog, Pages, Portfolio forms</text>
</svg>
